<svg xmlns="http://www.w3.org/2000/svg" width="17.919" height="16" viewBox="0 0 17.919 16">
    <g id="moon-alt-svgrepo-com" transform="translate(-2.081 -4)">
        <path id="Path_29" d="M11.461,17.085l.5.869Zm-1.746,1.4.976-.217ZM11.94,5.213l.564-.826ZM18,12a6,6,0,0,0-6-6V4a8,8,0,0,1,8,8Zm-6,6a6,6,0,0,0,6-6h2a8,8,0,0,1-8,8Zm-.486-.019Q11.755,18,12,18v2q-.325,0-.645-.026Zm-.549-1.764A6,6,0,0,0,14,11h2a8,8,0,0,1-4.044,6.955ZM14,11a5.993,5.993,0,0,0-2.623-4.96L12.5,4.387A7.993,7.993,0,0,1,16,11Zm-2.645,8.975a10.217,10.217,0,0,1-1.39-.167,1.51,1.51,0,0,1-1.226-1.1l1.952-.435a.652.652,0,0,0-.251-.383c-.072-.051-.1-.045-.015-.024a3.4,3.4,0,0,0,.4.059c.19.02.415.038.692.06Zm.6-2.02c-.634.362-1.025.586-1.259.76-.117.087-.12.108-.091.067a.67.67,0,0,0,.085-.511L8.739,18.7a1.335,1.335,0,0,1,.22-1.058,2.364,2.364,0,0,1,.546-.538,16.077,16.077,0,0,1,1.46-.891ZM12,6a.891.891,0,0,0,.857-.653.882.882,0,0,0-.353-.96L11.377,6.039A1.116,1.116,0,0,1,12,4Z" fill="#868992"/>
        <path id="Path_30" d="M5.4,10.2h0a2.43,2.43,0,0,0,.2.523.5.5,0,0,0,.794,0,2.43,2.43,0,0,0,.2-.523h0a4.365,4.365,0,0,1,.176-.479,2,2,0,0,1,.945-.945A4.365,4.365,0,0,1,8.2,8.6h0a2.43,2.43,0,0,0,.523-.2.5.5,0,0,0,0-.794A2.43,2.43,0,0,0,8.2,7.4h0a4.367,4.367,0,0,1-.479-.176,2,2,0,0,1-.945-.945A4.365,4.365,0,0,1,6.6,5.8a2.43,2.43,0,0,0-.2-.523.5.5,0,0,0-.794,0,2.43,2.43,0,0,0-.2.523,4.365,4.365,0,0,1-.176.479,2,2,0,0,1-.945.945A4.365,4.365,0,0,1,3.8,7.4a2.43,2.43,0,0,0-.523.2.5.5,0,0,0,0,.794,2.43,2.43,0,0,0,.523.2,4.365,4.365,0,0,1,.479.176,2,2,0,0,1,.945.945A4.367,4.367,0,0,1,5.4,10.2Z" fill="none" stroke="#868992" stroke-width="2"/>
    </g>
</svg>
