<svg xmlns="http://www.w3.org/2000/svg" width="18.971" height="19.729" viewBox="0 0 18.971 19.729">
    <path id="dragon-solid-svgrepo-com" d="M6.794,3V7.553L3,8.691l2.656,2.656-1.9,3.794H7.553v7.588H9.071V15.784c.984.427,2.019.866,3.8,1.574,0,.021,0,.039,0,.059a5.3,5.3,0,0,0,1.5,3.984,5.425,5.425,0,0,0,3.809,1.328V21.212a3.927,3.927,0,0,1-2.771-.913,3.46,3.46,0,0,1-1-2.324c1,.376,1.9.694,2.52.863a2.622,2.622,0,0,0,.658.086,3.133,3.133,0,0,0,2.97-2.5l.658-3.557-2.276,1.518c-3.557,0-4.4-2.276-4.4-2.276a2.969,2.969,0,0,1,1.458-1.426l.667.667V10.39c.142-.05.285-.092.427-.133l1.091,1.091V10c.044-.009.095-.021.139-.027l1.378,1.378V9.829l2.276,1.518V7.669a2.361,2.361,0,0,0-1.859-2.354,2.219,2.219,0,0,0-1.977.608L17.038,3,15.9,6.035H11.347ZM8.312,5.834,10.505,7.3l.382.255h7.8l.451-.5a.755.755,0,0,1,.557-.261.768.768,0,0,1,.142.012.856.856,0,0,1,.617.863v.643h-.3l-.012-.006-.448.006H19.67c-.537.009-5.264.175-6.536,3.207l-.231.551.207.56c.451,1.215,2.182,3.269,5.825,3.269h.172l-.047.258a1.608,1.608,0,0,1-1.476,1.248.96.96,0,0,1-.264-.036c-2.339-.628-9.088-3.59-9.156-3.619l-.29-.127H6.213l.8-1.6.489-.978L5.869,9.414l1.364-.406,1.079-.326Zm2.276,2.478s.175,1.518,1.518,1.518,2.276-1.518,2.276-1.518Z" transform="translate(-3 -3)" fill="#d45c00"/>
</svg>
