<svg xmlns="http://www.w3.org/2000/svg" width="17.178" height="17.178" viewBox="0 0 17.178 17.178">
    <g id="boxing-one-svgrepo-com" transform="translate(-3.15 -3.15)">
        <path id="Path_37" d="M8.709,19.87h.774a1.935,1.935,0,1,0,0-3.87H7.935A1.936,1.936,0,0,0,6,17.935v3.483a2.322,2.322,0,0,0,2.322,2.322h9.287a2.322,2.322,0,0,0,2.322-2.322V19.87a1.548,1.548,0,0,0-1.548-1.548H12.965" transform="translate(-1.226 -7.356)" fill="none" stroke="#ae1111" stroke-linecap="round" stroke-linejoin="round" stroke-miterlimit="2" stroke-width="1.7"/>
        <path id="Path_38" d="M20.513,39.1H12.774A.774.774,0,0,1,12,38.322V36h9.287v2.322A.776.776,0,0,1,20.513,39.1Z" transform="translate(-4.904 -19.617)" fill="none" stroke="#ae1111" stroke-linecap="round" stroke-linejoin="round" stroke-miterlimit="2" stroke-width="1.7"/>
        <path id="Path_39" d="M4.774,10.191C4.387,10.191,4,9.417,4,8.644V7.1A3.1,3.1,0,0,1,7.1,4h9.287a3.1,3.1,0,0,1,3.1,3.1V8.644a2.324,2.324,0,0,1-2.322,2.322h-7" fill="none" stroke="#ae1111" stroke-linecap="round" stroke-linejoin="round" stroke-miterlimit="2" stroke-width="1.7"/>
    </g>
</svg>
