<svg xmlns="http://www.w3.org/2000/svg" width="18" height="20.045" viewBox="0 0 18 20.045">
  <path d="M12,4a7,7,0,0,0-7,7v8.621a.4.4,0,0,0,.594.35l.942-.524a4,4,0,0,1,3.927.024l.544.311a2,2,0,0,0,1.985,0l.544-.311a4,4,0,0,1,3.927-.024l.942.524a.4.4,0,0,0,.594-.35V11A7,7,0,0,0,12,4ZM3,11a9,9,0,0,1,18,0v8.621a2.4,2.4,0,0,1-3.566,2.1l-.942-.524a2,2,0,0,0-1.964.012l-.544.311a4,4,0,0,1-3.969,0l-.544-.311A2,2,0,0,0,7.508,21.2l-.942.524A2.4,2.4,0,0,1,3,19.621Zm7.5-.5A1.5,1.5,0,1,1,9,9,1.5,1.5,0,0,1,10.5,10.5ZM15,12a1.5,1.5,0,1,0-1.5-1.5A1.5,1.5,0,0,0,15,12Z" transform="translate(-3 -2)" fill="#bb5c8c" fill-rule="evenodd"/>
</svg>
