<svg xmlns="http://www.w3.org/2000/svg" width="20.785" height="20.5" viewBox="0 0 20.785 20.5">
    <g id="carbs-svgrepo-com" transform="translate(-1.608 -2)">
        <path id="Path_15" d="M12,4,10.852,5.913C9.95,7.417,9.5,8.169,9.5,9s.451,1.583,1.354,3.087l.719,1.2c.191.319.287.479.429.479s.237-.16.429-.479l.719-1.2C14.05,10.583,14.5,9.831,14.5,9s-.451-1.583-1.354-3.087Zm0,0V2" fill="none" stroke="#5e9154" stroke-width="2"/>
        <path id="Path_16" d="M20.16,12.6l-2.231-.037c-1.754-.03-2.63-.044-3.35.371s-1.145,1.182-2,2.716L11.9,16.869c-.181.325-.271.488-.2.611s.257.126.629.132l1.4.023c1.754.03,2.631.044,3.35-.371s1.145-1.182,2-2.716Zm0,0,1.732-1" fill="none" stroke="#5e9154" stroke-width="2"/>
        <path id="Path_17" d="M3.84,12.6l2.231-.037c1.754-.03,2.631-.044,3.35.371s1.145,1.182,2,2.716l.678,1.222c.181.325.271.488.2.611s-.257.126-.629.132l-1.4.023c-1.754.03-2.631.044-3.35-.371s-1.145-1.182-2-2.716Zm0,0-1.732-1" fill="none" stroke="#5e9154" stroke-width="2"/>
        <path id="Path_18" d="M12,15v7.5" fill="none" stroke="#5e9154" stroke-width="2"/>
    </g>
</svg>
