<svg xmlns="http://www.w3.org/2000/svg" width="20" height="20" viewBox="0 0 20 20">
    <g id="winter-svgrepo-com" transform="translate(-2 -2)">
        <circle id="Ellipse_13" cx="3" cy="3" r="3" transform="translate(9 9)" fill="none" stroke="#a2c5db" stroke-width="2"/>
        <path id="Path_33" d="M12,8V6m0-3V6m0,0L9,4m3,2,3-2" fill="none" stroke="#a2c5db" stroke-linecap="round" stroke-width="2"/>
        <path id="Path_34" d="M16,12h2m3,0H18m0,0,2-3m-2,3,2,3" fill="none" stroke="#a2c5db" stroke-linecap="round" stroke-width="2"/>
        <path id="Path_35" d="M12,16v2m0,3V18m0,0L9,20m3-2,3,2" fill="none" stroke="#a2c5db" stroke-linecap="round" stroke-width="2"/>
        <path id="Path_36" d="M8,12H6M3,12H6m0,0L4,9m2,3L4,15" fill="none" stroke="#a2c5db" stroke-linecap="round" stroke-width="2"/>
    </g>
</svg>
