<svg xmlns="http://www.w3.org/2000/svg" width="20" height="19.555" viewBox="0 0 20 19.555">
    <g id="bug-svgrepo-com" transform="translate(-2 -2.445)">
        <path id="Path_4" d="M7,14.333A4.954,4.954,0,0,1,7.268,12,2,2,0,0,1,8,11.268,4.955,4.955,0,0,1,10.333,11h3.333A4.955,4.955,0,0,1,16,11.268a2,2,0,0,1,.732.732A4.955,4.955,0,0,1,17,14.333V16a10.036,10.036,0,0,1-.077,1.78,4,4,0,0,1-3.143,3.143A10.036,10.036,0,0,1,12,21h0a10.036,10.036,0,0,1-1.78-.077A4,4,0,0,1,7.077,17.78,10.041,10.041,0,0,1,7,16Z" fill="none" stroke="#459f1f" stroke-width="2"/>
        <path id="Path_5" d="M9,9a4.988,4.988,0,0,1,.152-1.765,2,2,0,0,1,1.082-1.082A4.988,4.988,0,0,1,12,6h0a4.988,4.988,0,0,1,1.765.152,2,2,0,0,1,1.082,1.082A4.989,4.989,0,0,1,15,9v2H9Z" fill="none" stroke="#459f1f" stroke-width="2"/>
        <path id="Path_6" d="M12,11v4" fill="none" stroke="#459f1f" stroke-width="2"/>
        <path id="Path_7" d="M15,3,13,6" fill="none" stroke="#459f1f" stroke-width="2"/>
        <path id="Path_8" d="M9,3l2,3" fill="none" stroke="#459f1f" stroke-width="2"/>
        <path id="Path_9" d="M7,16H2" fill="none" stroke="#459f1f" stroke-width="2"/>
        <path id="Path_10" d="M22,16H17" fill="none" stroke="#459f1f" stroke-width="2"/>
        <path id="Path_11" d="M20,9v1a3,3,0,0,1-3,3h0" fill="none" stroke="#459f1f" stroke-width="2"/>
        <path id="Path_12" d="M20,22h0a3,3,0,0,0-3-3h0" fill="none" stroke="#459f1f" stroke-width="2"/>
        <path id="Path_13" d="M4,9v1a3,3,0,0,0,3,3H7" fill="none" stroke="#459f1f" stroke-width="2"/>
        <path id="Path_14" d="M4,22H4a3,3,0,0,1,3-3H7" fill="none" stroke="#459f1f" stroke-width="2"/>
    </g>
</svg>
