<svg xmlns="http://www.w3.org/2000/svg" width="19.046" height="19.033" viewBox="0 0 19.046 19.033">
    <g id="magic-wand-svgrepo-com" transform="translate(0 -0.168)">
        <path id="Path_74" d="M18.388,5.874l-4.3-.731L13.447.852a.784.784,0,0,0-1.376-.4L9.354,3.771,5.3,2.15c-.855-.3-1.31.385-1.053,1.011L5.789,7.293,2.427,9.925a.769.769,0,0,0-.284.809.787.787,0,0,0,.649.568l3.25.552-5.8,5.971a.787.787,0,0,0,0,1.135.787.787,0,0,0,1.135,0l5.85-6.022.509,3.347a.784.784,0,0,0,1.376.4l2.713-3.32,4.051,1.621a.734.734,0,0,0,1.092-.77c-.027-.121-1.578-4.334-1.578-4.334l3.363-2.632A.779.779,0,0,0,18.388,5.874ZM13.89,9a.753.753,0,0,0-.245.89L14.738,12.8l-2.877-1.174a.767.767,0,0,0-.89.245L9.027,14.263l-.486-3.079a.775.775,0,0,0-.649-.649L4.814,10.01l2.43-1.9a.753.753,0,0,0,.245-.89L6.4,4.3,9.272,5.474a.767.767,0,0,0,.89-.245l1.944-2.391.486,3.079a.775.775,0,0,0,.649.649l3.079.525Z" transform="translate(0 0)" fill="#e88c8c"/>
    </g>
</svg>
