<svg xmlns="http://www.w3.org/2000/svg" width="16" height="19.949" viewBox="0 0 16 19.949">
    <g id="fire-2-svgrepo-com" transform="translate(-4 -2.051)">
        <path id="Path_20" d="M18.467,16.679l.924.383h0Zm-3.788,3.788.383.924h0Zm-5.358,0-.383.924h0ZM7.05,18.95l.707-.707h0ZM5.533,16.679l-.924.383ZM15.412,6.071,14.771,5.3Zm.176,0,.641-.767ZM13.109,8.538l.947-.32Zm.285.026.868.5ZM9.809,3.087,9.144,2.34ZM10,3.1l.732-.681ZM6,14A14.167,14.167,0,0,1,10.474,3.833L9.144,2.34A16.162,16.162,0,0,0,4,14ZM9.271,3.779a14.613,14.613,0,0,1,2.891,5.079l1.895-.641a16.586,16.586,0,0,0-3.321-5.8ZM14.262,9.06a8.422,8.422,0,0,1,1.791-2.221L14.771,5.3a10.4,10.4,0,0,0-2.245,2.765Zm.685-2.222A9.354,9.354,0,0,1,18,13.941h2A11.341,11.341,0,0,0,16.229,5.3ZM18,13.941V14h2v-.059ZM18,14a6,6,0,0,1-.457,2.3l1.848.765A8,8,0,0,0,20,14Zm-.457,2.3a6,6,0,0,1-1.3,1.946l1.414,1.414a8,8,0,0,0,1.734-2.6Zm-1.3,1.946a6,6,0,0,1-1.946,1.3l.765,1.848a8,8,0,0,0,2.6-1.734Zm-1.946,1.3A6,6,0,0,1,12,20v2a8,8,0,0,0,3.061-.609ZM12,20a6,6,0,0,1-2.3-.457l-.765,1.848A8,8,0,0,0,12,22Zm-2.3-.457a6,6,0,0,1-1.947-1.3L6.343,19.657a8,8,0,0,0,2.6,1.734Zm-1.947-1.3a6,6,0,0,1-1.3-1.946l-1.848.765a8,8,0,0,0,1.734,2.6ZM6.457,16.3A6,6,0,0,1,6,14H4a8,8,0,0,0,.609,3.061Zm9.6-9.458a.864.864,0,0,1-1.106,0L16.229,5.3a1.136,1.136,0,0,0-1.458,0Zm-3.892,2.02a1.158,1.158,0,0,0,2.1.2l-1.737-.992a.842.842,0,0,1,1.531.149ZM10.474,3.833a.863.863,0,0,1-1.2-.054l1.464-1.362A1.137,1.137,0,0,0,9.144,2.34Z" fill="#cf2d2d"/>
        <path id="Path_21" d="M11.458,11.41l-.627-.779h0ZM8.046,16.384l-.989-.147h0Zm4.5-4.974.627-.779Zm3.412,4.974-.989.147h0Zm0,.034-.995.1c0,.014,0,.027.005.04Zm-7.916,0,.99.144q0-.02.005-.04Zm2.789-5.787a13.879,13.879,0,0,0-2.111,2.1,7.566,7.566,0,0,0-1.663,3.505l1.978.294a5.6,5.6,0,0,1,1.249-2.554,11.875,11.875,0,0,1,1.8-1.788Zm2.338,0a1.856,1.856,0,0,0-2.338,0l1.254,1.558a.145.145,0,0,1-.17,0Zm3.774,5.606a7.565,7.565,0,0,0-1.662-3.505,13.873,13.873,0,0,0-2.111-2.1l-1.254,1.558a11.879,11.879,0,0,1,1.8,1.788,5.6,5.6,0,0,1,1.249,2.554Zm.01.077c0-.026-.006-.052-.01-.077l-1.978.294v-.009Zm-1.984.248A3.035,3.035,0,0,1,15,17h2a5.03,5.03,0,0,0-.052-.726ZM15,17a3,3,0,0,1-3,3v2a5,5,0,0,0,5-5Zm-3,3a3,3,0,0,1-3-3H7a5,5,0,0,0,5,5ZM9,17a3.034,3.034,0,0,1,.032-.437l-1.979-.288A5.033,5.033,0,0,0,7,17Zm-1.943-.763q-.006.039-.01.077l1.989.208v.009Z" fill="#cf2d2d"/>
    </g>
</svg>
