<svg xmlns="http://www.w3.org/2000/svg" width="21.727" height="16" viewBox="0 0 21.727 16">
    <g id="eye-svgrepo-com" transform="translate(-1.136 -4)">
        <path id="Path_19" d="M12,5C6.556,5,3.531,9.234,2.456,11.116a1.547,1.547,0,0,0-.319.867,1.592,1.592,0,0,0,.4.853C3.818,14.693,7.294,19,12,19s8.182-4.307,9.462-6.164a1.593,1.593,0,0,0,.4-.853,1.548,1.548,0,0,0-.319-.867C20.469,9.234,17.444,5,12,5Z" fill="none" stroke="#825ad6" stroke-width="2"/>
        <circle id="Ellipse_5" cx="4" cy="4" r="4" transform="translate(8 8)" fill="#825ad6"/>
    </g>
</svg>
