<svg xmlns="http://www.w3.org/2000/svg" width="18.965" height="18.99" viewBox="0 0 18.965 18.99">
    <path id="stone-svgrepo-com" d="M17.388,12.7a3.334,3.334,0,0,0,.853-2.174c0-1.8-1.605-3.362-4.01-4.008a2.272,2.272,0,0,0-.039-.849,2.431,2.431,0,0,0,1.463-2.078c0-1.456-1.609-2.6-3.664-2.6A3.713,3.713,0,0,0,8.53,2.763c-2.516.216-4.405,1.643-4.405,3.431A3.124,3.124,0,0,0,5.849,8.812a3.173,3.173,0,0,0-.539,1.716c0,.066.01.13.015.2-.44.278-.862.541-1.26.741-.2.1-.384.185-.559.268C1.948,12.463,1,13.048,1,15.729c0,3.752,3.225,4.234,6.034,4.234a61.718,61.718,0,0,0,7.686-.324c1.293-.172,5.245-.68,5.245-3.112A3.578,3.578,0,0,0,17.388,12.7Zm-5.4-9.98c1.659,0,2.91,1.112.844,1.638-1.48.369-2.784-.324-2.784-.769C10.052,3.286,10.788,2.722,11.991,2.722ZM8.543,4.491C9.2,5.8,11.051,6.31,12.527,6.163c.086,1.04-1.955,1.77-3.34,1.77-1.214,0-3.34-.629-3.34-1.739,0-.725,1.118-1.526,2.7-1.7Zm.645,5.165A5.884,5.884,0,0,0,13.436,8.1c1.788.388,3.081,1.386,3.081,2.428a2.209,2.209,0,0,1-1.276,1.734c-3.5,2.128-10-.222-7.752-2.8a7.357,7.357,0,0,0,1.7.2ZM14.5,17.932a60.713,60.713,0,0,1-7.463.307c-3.621,0-4.31-.882-4.31-2.509,0-2.408.56-1.7,3.2-3.341,1.862,2.7,6.908,3.128,9.908,1.54.222.1.441.185.654.271,1.173.466,1.763.7,1.763,2.328,0,.34-.791,1.022-3.746,1.4Z" transform="translate(-1 -0.986)" fill="#8d6f5b"/>
</svg>
