<svg xmlns="http://www.w3.org/2000/svg" width="27.364" height="23.333" viewBox="0 0 27.364 23.333">
    <path id="Path_67" d="M15.281,9l7.244,6.206" transform="translate(-6.988 -6.952)" fill="none" stroke="#686868" stroke-linecap="round" stroke-width="2"/>
    <path id="Path_68" d="M25.262,22.739l.791-5.141,4.784-.977" transform="translate(-10.517 -9.646)" fill="none" stroke="#686868" stroke-linecap="round" stroke-linejoin="round" stroke-width="2"/>
    <path id="Path_69" d="M6.571,22.625l6.926,6.55" transform="translate(-3.909 -11.769)" fill="none" stroke="#686868" stroke-linecap="round" stroke-width="2"/>
    <path id="Path_70" d="M15.6,36.746l1.219-5,4.851-.7" transform="translate(-7.102 -14.745)" fill="none" stroke="#686868" stroke-linecap="round" stroke-linejoin="round" stroke-width="2"/>
    <path id="Path_71" d="M18.814,7.378l7.543,5.975,1.481,4.77-7.056,1.348L12.589,12l1.74-3.575Z" transform="translate(-6.037 -6.378)" fill="none" stroke="#686868" stroke-linejoin="round" stroke-width="2" fill-rule="evenodd"/>
    <path id="Path_72" d="M17.571,27.6l1.478,4.577L11.5,33.652,4,26.306l1.662-4.13,3.528-.822" transform="translate(-3 -11.319)" fill="none" stroke="#686868" stroke-linecap="round" stroke-linejoin="round" stroke-width="2"/>
    <path id="Path_73" d="M34.573,29.106,34,33.755l5.971-1.165-1.264-4.4Z" transform="translate(-13.606 -13.735)" fill="none" stroke="#686868" stroke-linejoin="round" stroke-width="2" fill-rule="evenodd"/>
</svg>
