<svg xmlns="http://www.w3.org/2000/svg" width="14.394" height="20.028" viewBox="0 0 14.394 20.028">
    <g id="water-svgrepo-com" transform="translate(-4.803 -1.972)">
        <path id="Path_31" d="M12,18a2,2,0,0,1-1.932-1.482" fill="none" stroke="#22aab9" stroke-linecap="round" stroke-width="2"/>
        <path id="Path_32" d="M10.424,4.679c.631-1.073.946-1.609,1.4-1.69a1,1,0,0,1,.355,0c.452.082.767.618,1.4,1.69l1.668,2.836a27.187,27.187,0,0,1,2.707,6.315h0A5.625,5.625,0,0,1,12.543,21H11.457a5.625,5.625,0,0,1-5.408-7.17h0A27.187,27.187,0,0,1,8.756,7.515Z" fill="none" stroke="#22aab9" stroke-width="2"/>
    </g>
</svg>
