<svg xmlns="http://www.w3.org/2000/svg" width="50" height="50" viewBox="0 0 50 50">
    <path id="envelope-square-solid"
          d="M44.643,32H5.357A5.357,5.357,0,0,0,0,37.357V76.643A5.357,5.357,0,0,0,5.357,82H44.643A5.357,5.357,0,0,0,50,76.643V37.357A5.357,5.357,0,0,0,44.643,32ZM19.879,57.681C9.758,50.336,9.861,50.317,7.143,48.2V45.393a2.679,2.679,0,0,1,2.679-2.679H40.179a2.679,2.679,0,0,1,2.679,2.679V48.2c-2.72,2.117-2.615,2.134-12.736,9.48-1.172.854-3.5,2.915-5.121,2.89C23.381,60.6,21.053,58.537,19.879,57.681Zm22.978-4.947V68.607a2.679,2.679,0,0,1-2.679,2.679H9.821a2.679,2.679,0,0,1-2.679-2.679V52.734c1.558,1.2,3.72,2.817,10.636,7.836,1.581,1.154,4.238,3.588,7.22,3.573,3,.015,5.7-2.46,7.223-3.574C39.138,55.55,41.3,53.938,42.857,52.734Z"
          transform="translate(0 -32)" fill="#3c5aa6"/>
</svg>
