<svg xmlns="http://www.w3.org/2000/svg" width="69.398" height="50" viewBox="0 0 69.398 50">
    <g id="Capa_1-2" transform="translate(0.001 0.004)">
        <g id="Group_1">
            <path id="Path_44" d="M34.427,50A23.556,23.556,0,0,1,23.235,46.9a21.211,21.211,0,0,1-6.158-5.125,8.7,8.7,0,0,1-1.812-3.2,6.809,6.809,0,0,1,.092-3.588c.345-1.268.751-2.524,1.032-3.806a7.949,7.949,0,0,0,.127-2.156,14.84,14.84,0,0,1,.317-4.4c.271-1.125.616-2.231.909-3.351a.416.416,0,0,0-.142-.361,60.642,60.642,0,0,1-6.56-4.732,51.212,51.212,0,0,1-6.383-6.174A28.84,28.84,0,0,1,.925,4.773a7.206,7.206,0,0,1-.9-2.511C-.175.57.737-.028,2.235.016a10.3,10.3,0,0,1,3.579.9A38.506,38.506,0,0,1,13.364,5.18a45.749,45.749,0,0,1,7.043,6.027c.992,1.052,1.906,2.182,2.834,3.293.225.268.369.364.735.187a24.583,24.583,0,0,1,11.664-2.3,23.414,23.414,0,0,1,9.87,2.36c.3.148.42.029.579-.18a41.946,41.946,0,0,1,5.328-5.718,48.492,48.492,0,0,1,6.267-4.8A33.528,33.528,0,0,1,64.224.655,7.81,7.81,0,0,1,67.765.024a1.676,1.676,0,0,1,1.628,1.931,6.534,6.534,0,0,1-.815,2.579,26.447,26.447,0,0,1-3.369,4.9,44.462,44.462,0,0,1-5.242,5.366,56.322,56.322,0,0,1-8.077,6c-.235.139-.346.26-.229.586a20.485,20.485,0,0,1,1.162,4.9,13.363,13.363,0,0,1,.037,2.447,11.572,11.572,0,0,0,.591,4.315c.29.983.573,1.973.769,2.978a5.883,5.883,0,0,1-.992,4.507,19.17,19.17,0,0,1-5.049,5.008A24.238,24.238,0,0,1,40.014,49.3a22.57,22.57,0,0,1-5.587.7ZM19.278,41.837c5.041,4.8,10.966,7.18,17.953,6.361a21.635,21.635,0,0,0,12.911-6.4c-.232-.068-.355-.11-.481-.141a2.793,2.793,0,0,1-1.539-.98,5.329,5.329,0,0,1-.044-6.2,2.945,2.945,0,0,1,3.216-1.234c.18.052.354.122.576.2-.173-.76-.341-1.446-.484-2.137a12.178,12.178,0,0,1-.079-3.069,15.765,15.765,0,0,0-.946-5.7c-.247-.746-.529-1.481-.805-2.247.38-.212.751-.407,1.112-.62A56.813,56.813,0,0,0,59.5,13.045a4.057,4.057,0,0,0,1.53-1.991,13.354,13.354,0,0,0,.317-6.329c-.062-.273-.137-.543-.222-.879-.689.4-1.31.741-1.907,1.119a45.716,45.716,0,0,0-9.544,7.869c-1.1,1.215-2.083,2.543-3.1,3.832-.195.246-.335.338-.638.149a15.239,15.239,0,0,0-1.662-.906,23.073,23.073,0,0,0-10-1.951,23.473,23.473,0,0,0-6.086.849A17.9,17.9,0,0,0,23.48,16.8c-.219.137-.4.249-.618-.071a36.635,36.635,0,0,0-5.748-6.49A46.961,46.961,0,0,0,10.3,5.053c-.541-.342-1.1-.66-1.68-1.007a8.257,8.257,0,0,0-.443,2.571,13.635,13.635,0,0,0,.682,4.668,2.882,2.882,0,0,0,.788,1.559c.8.647,1.556,1.34,2.347,1.995a46.09,46.09,0,0,0,7.6,5.3c.2.1.262.209.169.435-.233.572-.456,1.151-.653,1.736a15.884,15.884,0,0,0-1,6.2,11.257,11.257,0,0,1-.257,3.571c-.108.427-.215.853-.328,1.3.093,0,.137.013.166,0a2.874,2.874,0,0,1,3.485.959,5.259,5.259,0,0,1,.979,4.329,4.26,4.26,0,0,1-1.065,2.169,3.621,3.621,0,0,1-1.813,1Zm1.956-4.071a3.9,3.9,0,0,0-.877-2.6,1.9,1.9,0,0,0-3.2.271,3.922,3.922,0,0,0,.459,4.376,1.824,1.824,0,0,0,2.909-.084,3.46,3.46,0,0,0,.712-1.96Zm31.473-.38a3.6,3.6,0,0,0-.483-1.943,1.877,1.877,0,0,0-2.958-.537,3.7,3.7,0,0,0-.281,4.973,1.721,1.721,0,0,0,2.255.327,3.512,3.512,0,0,0,1.467-2.821Z" transform="translate(0.001 0.004)" fill="#919191"/>
            <path id="Path_45" d="M393.087,244.659a3.465,3.465,0,1,1-3.348-3.459A3.456,3.456,0,0,1,393.087,244.659Zm-4.629-1.962a1.215,1.215,0,0,0-1.191,1.177,1.234,1.234,0,0,0,1.206,1.173,1.2,1.2,0,0,0,1.15-1.212A1.148,1.148,0,0,0,388.458,242.7Z" transform="translate(-344.86 -215.404)" fill="#919191"/>
            <path id="Path_46" d="M206.978,241.256a3.468,3.468,0,1,1-3.5,3.537A3.459,3.459,0,0,1,206.978,241.256Zm1.149,1.5a1.185,1.185,0,0,0-1.214,1.151,1.181,1.181,0,1,0,2.361.022A1.172,1.172,0,0,0,208.126,242.756Z" transform="translate(-181.713 -215.453)" fill="#919191"/>
            <path id="Path_47" d="M265.421,353.742c.294-.138.563-.268.837-.386a.218.218,0,0,1,.18.031,3.332,3.332,0,0,0,2.7.37,14.115,14.115,0,0,0,2.212-.572,2.3,2.3,0,0,1,1.637.061,8.96,8.96,0,0,0,3.084.6,2.722,2.722,0,0,0,1.651-.436.343.343,0,0,1,.283-.042c.252.1.492.24.775.382a2.23,2.23,0,0,1-1.655,1.056,8.245,8.245,0,0,1-3.743-.324,2.958,2.958,0,0,1-.638-.2c-.7-.372-1.3.055-1.931.209a8.987,8.987,0,0,1-3.709.329,2.247,2.247,0,0,1-1.683-1.08Z" transform="translate(-237.035 -315.302)" fill="#919191"/>
            <path id="Path_48" d="M315.356,315.077a10.357,10.357,0,0,1-1.227-.364.474.474,0,0,1-.1-.852,2.449,2.449,0,0,1,2.559.009c.3.265.3.605-.063.8a7.166,7.166,0,0,1-1.169.4Z" transform="translate(-280.247 -279.977)" fill="#919191"/>
        </g>
    </g>
</svg>
