<svg xmlns="http://www.w3.org/2000/svg" width="50.01" height="50" viewBox="0 0 50.01 50">
    <g id="Pokéball_1_" transform="translate(-137.9 33.7)">
        <path id="Line" d="M67.037,45.328a21.1,21.1,0,0,1,21.03,19.28H74.927a8.2,8.2,0,0,0-16.054,0H46.006A21.114,21.114,0,0,1,67.037,45.328Zm4.39,19.28a4.85,4.85,0,0,1,.3,1.691h.01a4.83,4.83,0,1,1-9.66,0h-.01a4.832,4.832,0,0,1,9.357-1.691ZM66.763,87.282A21.1,21.1,0,0,1,45.733,68h13.14a8.2,8.2,0,0,0,16.054,0H87.8A21.123,21.123,0,0,1,66.763,87.282ZM66.9,41.3a25,25,0,1,0,25.01,25A25,25,0,0,0,66.9,41.3Z" transform="translate(96 -75)" fill="#919191"/>
    </g>
</svg>
